<svg width="551.5px" height="138.5px" xmlns="http://www.w3.org/2000/svg" viewBox="-25.752465820312466 5.754980468750006 551.5049316406249 138.4900390625" style="background: rgba(86, 86, 86, 0)" preserveAspectRatio="xMidYMid"><defs><filter id="editing-extrude-glow"><feFlood flood-color="rgba(20%,20%,20%,0.091)" result="flood-1"></feFlood><feMorphology operator="erode" radius="1" in="SourceAlpha" result="erode"></feMorphology><feComposite operator="in" in="flood-1" in2="erode" result="comp1"></feComposite><feConvolveMatrix order="3,3" divisor="1" in="comp1" result="convolve" kernelMatrix="0 0 0 1 1 1 0 0 0"></feConvolveMatrix><feOffset dx="-3" dy="0" in="convolve" result="extrude"></feOffset><feComposite operator="in" in="flood-1" in2="extrude" result="comp-extrude"></feComposite><feFlood flood-color="rgba(0%,0%,0%,0.784)" result="flood-2"></feFlood><feComposite operator="in" in="flood-2" in2="SourceAlpha" result="comp2"></feComposite><feMorphology operator="dilate" radius="1" in="comp2" result="dilate"></feMorphology><feOffset dx="-4.5" dy="0" in="dilate" result="offset"></feOffset><feGaussianBlur in="offset" stdDeviation="5.8" result="blur"></feGaussianBlur><feComponentTransfer in="blur" result="shadow"><feFuncA type="linear" slope="0.8" intercept="-0.2"></feFuncA></feComponentTransfer><feMerge><feMergeNode in="shadow"></feMergeNode><feMergeNode in="comp-extrude"></feMergeNode><feMergeNode in="SourceGraphic"></feMergeNode></feMerge></filter></defs><g filter="url(#editing-extrude-glow)"><g transform="matrix(1.3,0,0,1.7,18.4,219.4)"><path d="M -18.2 -63.3 L -17.8 -66.2 L -17.8 -66.2 Q -14.8 -66.8 -13.7 -67.9 L -13.7 -67.9 L -13.7 -67.9 Q -12.7 -69 -12.7 -71.7 L -12.7 -71.7 L -12.6 -98.6 L -12.6 -98.6 Q -12.6 -100.7 -13.1 -101.4 L -13.1 -101.4 L -13.1 -101.4 Q -13.6 -102.1 -15 -102.1 L -15 -102.1 L -17.6 -101.9 L -17.8 -102.2 L -17.3 -105 L -17.3 -105 Q -16.3 -105 -15.7 -104.9 L -15.7 -104.9 L -9.7 -104.8 L -9.7 -104.8 Q -6.8 -104.8 -2.4 -105.4 L -2.4 -105.4 L -2.6 -102.5 L -2.6 -102.5 Q -5.2 -102.2 -6.2 -101.5 L -6.2 -101.5 L -6.2 -101.5 Q -7.1 -100.7 -7.2 -98.9 L -7.2 -98.9 L -7.2 -98.9 Q -7.6 -91.4 -7.9 -83.2 L -7.9 -83.2 L -7.9 -83.2 Q -8.1 -75.1 -8.1 -71.2 L -8.1 -71.2 L -8.1 -71.2 Q -8.1 -68.6 -7.5 -67.7 L -7.5 -67.7 L -7.5 -67.7 Q -7 -66.9 -5.3 -66.9 L -5.3 -66.9 L -5.3 -66.9 Q -4.2 -66.9 -1.9 -67.1 L -1.9 -67.1 L -1.8 -66.8 L -2.4 -63.9 L -2.4 -63.9 Q -3.2 -63.9 -3.8 -63.9 L -3.8 -63.9 L -3.8 -63.9 Q -8.2 -64 -10.7 -64 L -10.7 -64 L -10.7 -64 Q -13.9 -64 -18.2 -63.3 L -18.2 -63.3 Z M 22.2 -65.9 L 22.2 -65.9 Q 24.1 -66.4 24.9 -67.4 L 24.9 -67.4 L 24.9 -67.4 Q 25.7 -68.4 25.7 -70.1 L 25.7 -70.1 L 26 -82.7 L 26 -82.7 Q 26 -85.9 24.6 -87.7 L 24.6 -87.7 L 24.6 -87.7 Q 23.2 -89.4 20.7 -89.4 L 20.7 -89.4 L 20.7 -89.4 Q 18.6 -89.4 16.5 -88.3 L 16.5 -88.3 L 16.5 -88.3 Q 14.4 -87.3 12.8 -86.1 L 12.8 -86.1 L 12.8 -86.1 Q 12.2 -72.8 12.2 -70.3 L 12.2 -70.3 L 12.2 -70.3 Q 12.2 -68.3 12.8 -67.5 L 12.8 -67.5 L 12.8 -67.5 Q 13.3 -66.7 14.5 -66.7 L 14.5 -66.7 L 14.5 -66.7 Q 15.2 -66.7 15.9 -66.8 L 15.9 -66.8 L 15.9 -66.8 Q 16.5 -66.9 16.8 -66.9 L 16.8 -66.9 L 16.9 -66.6 L 16.3 -63.9 L 16.3 -63.9 Q 15.8 -63.9 14.1 -64 L 14.1 -64 L 14.1 -64 Q 12.4 -64 10.5 -64 L 10.5 -64 L 10.5 -64 Q 8.4 -64 6.6 -64 L 6.6 -64 L 6.6 -64 Q 4.8 -63.9 4.2 -63.9 L 4.2 -63.9 L 4.6 -66.5 L 4.6 -66.5 Q 6.4 -66.7 7.2 -67.5 L 7.2 -67.5 L 7.2 -67.5 Q 7.9 -68.3 7.9 -70.1 L 7.9 -70.1 L 7.9 -85.7 L 7.9 -85.7 Q 7.9 -87.9 7.2 -88.7 L 7.2 -88.7 L 7.2 -88.7 Q 6.5 -89.6 4.8 -89.6 L 4.8 -89.6 L 4 -89.6 L 3.9 -89.8 L 4 -91.9 L 4 -91.9 Q 6.8 -92.4 9.5 -93 L 9.5 -93 L 9.5 -93 Q 12.2 -93.6 13 -93.8 L 13 -93.8 L 13.4 -93.3 L 13.4 -93.3 Q 13.3 -92.9 13 -91.7 L 13 -91.7 L 13 -91.7 Q 12.8 -90.4 12.7 -89.1 L 12.7 -89.1 L 12.8 -88.9 L 12.8 -88.9 Q 20 -93.7 22.2 -93.7 L 22.2 -93.7 L 22.2 -93.7 Q 25.3 -93.7 27.4 -92.4 L 27.4 -92.4 L 27.4 -92.4 Q 29.5 -91.1 30.4 -88.7 L 30.4 -88.7 L 30.4 -88.7 Q 32.7 -90.3 35.6 -92 L 35.6 -92 L 35.6 -92 Q 38.5 -93.7 40.1 -93.7 L 40.1 -93.7 L 40.1 -93.7 Q 44.1 -93.7 46.5 -91.5 L 46.5 -91.5 L 46.5 -91.5 Q 48.8 -89.3 48.8 -85.5 L 48.8 -85.5 L 48.8 -85.5 Q 48.8 -84.8 48.5 -79.6 L 48.5 -79.6 L 48.5 -79.6 Q 48 -72.9 48 -70.3 L 48 -70.3 L 48 -70.3 Q 48 -68.3 48.5 -67.5 L 48.5 -67.5 L 48.5 -67.5 Q 49 -66.7 50.3 -66.7 L 50.3 -66.7 L 50.3 -66.7 Q 51 -66.7 51.6 -66.8 L 51.6 -66.8 L 51.6 -66.8 Q 52.2 -66.9 52.5 -66.9 L 52.5 -66.9 L 52.6 -66.6 L 52 -63.9 L 52 -63.9 Q 51.5 -63.9 49.8 -64 L 49.8 -64 L 49.8 -64 Q 48.1 -64 46.2 -64 L 46.2 -64 L 46.2 -64 Q 44.6 -64 42.5 -63.9 L 42.5 -63.9 L 42.5 -63.9 Q 40.5 -63.7 39.9 -63.7 L 39.9 -63.7 L 40.2 -66.3 L 40.2 -66.3 Q 42.1 -66.6 42.8 -67.4 L 42.8 -67.4 L 42.8 -67.4 Q 43.6 -68.3 43.6 -70.1 L 43.6 -70.1 L 43.9 -82.7 L 43.9 -82.7 Q 43.9 -85.9 42.5 -87.7 L 42.5 -87.7 L 42.5 -87.7 Q 41.1 -89.4 38.5 -89.4 L 38.5 -89.4 L 38.5 -89.4 Q 35.2 -89.4 30.8 -86.2 L 30.8 -86.2 L 30.1 -70.3 L 30.1 -70.3 Q 30.1 -68.5 30.6 -67.6 L 30.6 -67.6 L 30.6 -67.6 Q 31.1 -66.7 32.3 -66.7 L 32.3 -66.7 L 32.3 -66.7 Q 33 -66.7 33.7 -66.8 L 33.7 -66.8 L 33.7 -66.8 Q 34.3 -66.9 34.6 -66.9 L 34.6 -66.9 L 34.7 -66.6 L 34.2 -63.9 L 34.2 -63.9 Q 33.6 -63.9 32 -64 L 32 -64 L 32 -64 Q 30.4 -64 28.5 -64 L 28.5 -64 L 28.5 -64 Q 26.8 -64 24.7 -63.7 L 24.7 -63.7 L 24.7 -63.7 Q 22.5 -63.4 21.9 -63.3 L 21.9 -63.3 L 22.2 -65.9 Z M 78.4 -63.3 L 78.4 -63.3 Q 73.2 -63.3 72.7 -68.5 L 72.7 -68.5 L 72.5 -68.5 L 72.5 -68.5 Q 70.2 -66.2 68.3 -64.9 L 68.3 -64.9 L 68.3 -64.9 Q 66.4 -63.5 65.4 -63.5 L 65.4 -63.5 L 65.4 -63.5 Q 61.8 -63.5 59.5 -65.8 L 59.5 -65.8 L 59.5 -65.8 Q 57.2 -68 57.2 -71.5 L 57.2 -71.5 L 57.2 -71.5 Q 57.2 -73.3 58.2 -74.7 L 58.2 -74.7 L 58.2 -74.7 Q 59.1 -76.1 60.6 -76.6 L 60.6 -76.6 L 72.8 -79.9 L 72.8 -82.7 L 72.8 -82.7 Q 72.8 -85.9 71.4 -87.7 L 71.4 -87.7 L 71.4 -87.7 Q 69.9 -89.5 67.2 -89.5 L 67.2 -89.5 L 67.2 -89.5 Q 65.4 -89.5 63.4 -88.7 L 63.4 -88.7 L 63.4 -88.7 Q 61.5 -87.9 59.5 -86.3 L 59.5 -86.3 L 59.2 -86.5 L 58.4 -89.3 L 58.4 -89.3 Q 61.5 -91 64.5 -92.4 L 64.5 -92.4 L 64.5 -92.4 Q 67.5 -93.7 68.9 -93.7 L 68.9 -93.7 L 68.9 -93.7 Q 73 -93.7 75.4 -91.6 L 75.4 -91.6 L 75.4 -91.6 Q 77.8 -89.4 77.8 -85.5 L 77.8 -85.5 L 77.8 -85.5 Q 77.8 -84.1 77.3 -79.7 L 77.3 -79.7 L 77.3 -79.7 Q 76.6 -72.7 76.6 -70.8 L 76.6 -70.8 L 76.6 -70.8 Q 76.6 -69.4 77.3 -68.6 L 77.3 -68.6 L 77.3 -68.6 Q 78 -67.8 79.2 -67.8 L 79.2 -67.8 L 79.2 -67.8 Q 80.3 -67.8 81.4 -68.3 L 81.4 -68.3 L 81.4 -68.3 Q 82.4 -68.8 83.1 -69.4 L 83.1 -69.4 L 84 -68.4 L 84 -68.4 Q 83 -66.8 81.5 -65.3 L 81.5 -65.3 L 81.5 -65.3 Q 80 -63.8 78.4 -63.3 L 78.4 -63.3 Z M 66.5 -67.9 L 66.5 -67.9 Q 67.7 -67.9 69.4 -68.7 L 69.4 -68.7 L 69.4 -68.7 Q 71 -69.6 72.3 -71 L 72.3 -71 L 72.7 -77.5 L 64 -74.9 L 64 -74.9 Q 62.1 -74.3 62.1 -72.2 L 62.1 -72.2 L 62.1 -72.2 Q 62.1 -70.3 63.3 -69.1 L 63.3 -69.1 L 63.3 -69.1 Q 64.6 -67.9 66.5 -67.9 L 66.5 -67.9 Z M 114.8 -91.1 L 114.8 -91.1 Q 113.6 -90.9 109.3 -90.5 L 109.3 -90.5 L 109.1 -90.2 L 109.1 -90.2 Q 111.6 -87.4 111.6 -83.7 L 111.6 -83.7 L 111.6 -83.7 Q 111.6 -80.6 109.9 -78 L 109.9 -78 L 109.9 -78 Q 108.2 -75.4 105.4 -73.9 L 105.4 -73.9 L 105.4 -73.9 Q 102.5 -72.4 99 -72.4 L 99 -72.4 L 99 -72.4 Q 97.2 -72.4 95.4 -72.9 L 95.4 -72.9 L 95.4 -72.9 Q 94 -72 93.3 -71.3 L 93.3 -71.3 L 93.3 -71.3 Q 92.7 -70.6 92.7 -69.9 L 92.7 -69.9 L 92.7 -69.9 Q 92.7 -68.5 94.7 -67.9 L 94.7 -67.9 L 94.7 -67.9 Q 96.7 -67.3 100.9 -66.8 L 100.9 -66.8 L 100.9 -66.8 Q 105 -66.3 107.6 -65.7 L 107.6 -65.7 L 107.6 -65.7 Q 110.2 -65.2 112 -63.8 L 112 -63.8 L 112 -63.8 Q 113.9 -62.4 113.9 -59.9 L 113.9 -59.9 L 113.9 -59.9 Q 113.9 -57.1 111.6 -54.4 L 111.6 -54.4 L 111.6 -54.4 Q 109.3 -51.8 105.6 -50.2 L 105.6 -50.2 L 105.6 -50.2 Q 102 -48.6 98.1 -48.6 L 98.1 -48.6 L 98.1 -48.6 Q 93.5 -48.6 90.9 -50.8 L 90.9 -50.8 L 90.9 -50.8 Q 88.3 -53.1 88.3 -57.1 L 88.3 -57.1 L 88.3 -57.1 Q 89.2 -58.2 90.9 -59.8 L 90.9 -59.8 L 90.9 -59.8 Q 92.6 -61.3 94.7 -62.8 L 94.7 -62.8 L 94.7 -63.2 L 94.7 -63.2 Q 91.3 -63.8 89.6 -65.4 L 89.6 -65.4 L 89.6 -65.4 Q 87.8 -67 87.7 -69.5 L 87.7 -69.5 L 87.7 -69.5 Q 90.2 -71.9 93.1 -73.6 L 93.1 -73.6 L 93.1 -73.8 L 93.1 -73.8 Q 90.8 -75.1 89.6 -77.3 L 89.6 -77.3 L 89.6 -77.3 Q 88.3 -79.4 88.3 -82.1 L 88.3 -82.1 L 88.3 -82.1 Q 88.3 -85.2 90 -87.9 L 90 -87.9 L 90 -87.9 Q 91.6 -90.5 94.3 -92.1 L 94.3 -92.1 L 94.3 -92.1 Q 97 -93.7 100.2 -93.7 L 100.2 -93.7 L 100.2 -93.7 Q 101.7 -93.7 103.9 -93.4 L 103.9 -93.4 L 103.9 -93.4 Q 105.5 -93 106.5 -93 L 106.5 -93 L 106.5 -93 Q 109.4 -93.4 115.3 -95 L 115.3 -95 L 115.5 -94.7 L 114.8 -91.1 Z M 100.5 -75.2 L 100.5 -75.2 Q 103.4 -75.2 105.1 -77 L 105.1 -77 L 105.1 -77 Q 106.8 -78.9 106.8 -82.2 L 106.8 -82.2 L 106.8 -82.2 Q 106.8 -85.9 104.8 -88.2 L 104.8 -88.2 L 104.8 -88.2 Q 102.7 -90.5 99.5 -90.5 L 99.5 -90.5 L 99.5 -90.5 Q 96.5 -90.5 94.8 -88.6 L 94.8 -88.6 L 94.8 -88.6 Q 93.1 -86.6 93.1 -83.4 L 93.1 -83.4 L 93.1 -83.4 Q 93.1 -79.7 95.2 -77.5 L 95.2 -77.5 L 95.2 -77.5 Q 97.2 -75.2 100.5 -75.2 L 100.5 -75.2 Z M 97.4 -62.7 L 97.4 -62.7 Q 95.5 -61.4 94.5 -59.7 L 94.5 -59.7 L 94.5 -59.7 Q 93.5 -58.1 93.5 -56.5 L 93.5 -56.5 L 93.5 -56.5 Q 93.5 -54.3 95.3 -53 L 95.3 -53 L 95.3 -53 Q 97.2 -51.7 100.2 -51.7 L 100.2 -51.7 L 100.2 -51.7 Q 102.7 -51.7 104.9 -52.6 L 104.9 -52.6 L 104.9 -52.6 Q 107.1 -53.4 108.4 -54.9 L 108.4 -54.9 L 108.4 -54.9 Q 109.8 -56.4 109.8 -58 L 109.8 -58 L 109.8 -58 Q 109.8 -59.3 108.8 -60.1 L 108.8 -60.1 L 108.8 -60.1 Q 107.9 -60.8 105.3 -61.4 L 105.3 -61.4 L 105.3 -61.4 Q 102.7 -62 97.4 -62.7 L 97.4 -62.7 Z M 132.2 -63.3 L 132.2 -63.3 Q 128.3 -63.3 125.2 -65 L 125.2 -65 L 125.2 -65 Q 122.1 -66.8 120.5 -70 L 120.5 -70 L 120.5 -70 Q 118.8 -73.3 118.8 -77.4 L 118.8 -77.4 L 118.8 -77.4 Q 118.8 -81.7 120.8 -85.5 L 120.8 -85.5 L 120.8 -85.5 Q 122.7 -89.3 126 -91.5 L 126 -91.5 L 126 -91.5 Q 129.2 -93.7 132.9 -93.7 L 132.9 -93.7 L 132.9 -93.7 Q 137.6 -93.7 140 -91.4 L 140 -91.4 L 140 -91.4 Q 142.5 -89 142.5 -84.5 L 142.5 -84.5 L 142.5 -84.5 Q 142.5 -82.6 142.1 -81.3 L 142.1 -81.3 L 141.3 -80.6 L 123.6 -80.6 L 123.6 -80.6 Q 123.5 -74.3 126.1 -71 L 126.1 -71 L 126.1 -71 Q 128.6 -67.6 133.1 -67.6 L 133.1 -67.6 L 133.1 -67.6 Q 136.7 -67.6 140.9 -69.6 L 140.9 -69.6 L 141.3 -69.5 L 142 -67.6 L 142 -67.6 Q 139.7 -66 136.9 -64.6 L 136.9 -64.6 L 136.9 -64.6 Q 134.2 -63.3 132.2 -63.3 L 132.2 -63.3 Z M 123.9 -82.9 L 135.4 -83.5 L 135.4 -83.5 Q 136.4 -83.6 136.7 -83.9 L 136.7 -83.9 L 136.7 -83.9 Q 137 -84.3 137 -85.2 L 137 -85.2 L 137 -85.2 Q 137 -87.8 135.7 -89.1 L 135.7 -89.1 L 135.7 -89.1 Q 134.3 -90.5 131.7 -90.5 L 131.7 -90.5 L 131.7 -90.5 Q 128.7 -90.5 126.6 -88.4 L 126.6 -88.4 L 126.6 -88.4 Q 124.4 -86.4 123.9 -82.9 L 123.9 -82.9 Z M 156.1 -63.3 L 156.1 -63.3 Q 154.1 -63.3 152.4 -63.6 L 152.4 -63.6 L 152.4 -63.6 Q 150.7 -63.9 149.7 -64.2 L 149.7 -64.2 L 149.7 -64.2 Q 148.8 -64.5 148.5 -64.6 L 148.5 -64.6 L 148.3 -65.1 L 148.3 -65.1 Q 148.5 -66 148.8 -69 L 148.8 -69 L 148.8 -69 Q 149 -72 149.1 -73.6 L 149.1 -73.6 L 151.3 -74 L 151.3 -74 Q 151.3 -69.7 152.7 -68 L 152.7 -68 L 152.7 -68 Q 154.1 -66.3 157.5 -66.3 L 157.5 -66.3 L 157.5 -66.3 Q 160 -66.3 161.6 -67.4 L 161.6 -67.4 L 161.6 -67.4 Q 163.3 -68.5 163.3 -70.1 L 163.3 -70.1 L 163.3 -70.1 Q 163.3 -71.7 161.8 -73 L 161.8 -73 L 161.8 -73 Q 160.3 -74.3 155.9 -76.7 L 155.9 -76.7 L 155.9 -76.7 Q 152.2 -78.5 150.5 -80.4 L 150.5 -80.4 L 150.5 -80.4 Q 148.9 -82.3 148.9 -84.7 L 148.9 -84.7 L 148.9 -84.7 Q 148.9 -87.2 150.4 -89.3 L 150.4 -89.3 L 150.4 -89.3 Q 152 -91.4 154.6 -92.6 L 154.6 -92.6 L 154.6 -92.6 Q 157.3 -93.7 160.7 -93.7 L 160.7 -93.7 L 160.7 -93.7 Q 162.2 -93.7 163.6 -93.5 L 163.6 -93.5 L 163.6 -93.5 Q 165 -93.3 165.9 -93 L 165.9 -93 L 165.9 -93 Q 166.8 -92.8 167.1 -92.7 L 167.1 -92.7 L 167.2 -92.4 L 167.2 -92.4 Q 167.1 -91.8 166.6 -89.5 L 166.6 -89.5 L 166.6 -89.5 Q 166.2 -87.2 166 -84.6 L 166 -84.6 L 163.6 -84.4 L 163.6 -84.4 Q 163.6 -84.6 163.7 -85.2 L 163.7 -85.2 L 163.7 -85.2 Q 163.7 -85.7 163.7 -86.3 L 163.7 -86.3 L 163.7 -86.3 Q 163.7 -88.6 162.5 -89.6 L 162.5 -89.6 L 162.5 -89.6 Q 161.2 -90.7 158.5 -90.7 L 158.5 -90.7 L 158.5 -90.7 Q 156.3 -90.7 154.8 -89.6 L 154.8 -89.6 L 154.8 -89.6 Q 153.3 -88.6 153.3 -87.1 L 153.3 -87.1 L 153.3 -87.1 Q 153.3 -85.6 154.6 -84.3 L 154.6 -84.3 L 154.6 -84.3 Q 155.9 -82.9 158.9 -81.4 L 158.9 -81.4 L 158.9 -81.4 Q 164 -78.6 165.9 -76.7 L 165.9 -76.7 L 165.9 -76.7 Q 167.8 -74.9 167.8 -72.4 L 167.8 -72.4 L 167.8 -72.4 Q 167.8 -70 166.2 -67.9 L 166.2 -67.9 L 166.2 -67.9 Q 164.6 -65.8 161.9 -64.5 L 161.9 -64.5 L 161.9 -64.5 Q 159.2 -63.3 156.1 -63.3 L 156.1 -63.3 Z M 204.8 -63.3 L 204.8 -63.3 Q 199.2 -63.3 195 -65.7 L 195 -65.7 L 195 -65.7 Q 190.7 -68.1 188.4 -72.6 L 188.4 -72.6 L 188.4 -72.6 Q 186.1 -77 186.1 -83.1 L 186.1 -83.1 L 186.1 -83.1 Q 186.1 -89.6 188.9 -94.8 L 188.9 -94.8 L 188.9 -94.8 Q 191.8 -99.9 196.9 -102.7 L 196.9 -102.7 L 196.9 -102.7 Q 202 -105.6 208.6 -105.6 L 208.6 -105.6 L 208.6 -105.6 Q 211 -105.6 213.7 -105.2 L 213.7 -105.2 L 213.7 -105.2 Q 216.5 -104.9 218.4 -104.5 L 218.4 -104.5 L 218.4 -104.5 Q 220.4 -104.2 221 -104 L 221 -104 L 221.3 -103.7 L 221.3 -103.7 Q 221.1 -103.3 220.8 -101.8 L 220.8 -101.8 L 220.8 -101.8 Q 220.5 -100.3 220.1 -98 L 220.1 -98 L 220.1 -98 Q 219.8 -95.6 219.6 -93 L 219.6 -93 L 216.6 -92.7 L 216.6 -92.7 Q 216.7 -93 216.7 -94 L 216.7 -94 L 216.7 -94 Q 216.8 -94.9 216.8 -96.2 L 216.8 -96.2 L 216.8 -96.2 Q 216.8 -99.1 214.5 -100.5 L 214.5 -100.5 L 214.5 -100.5 Q 212.2 -101.8 207.1 -101.8 L 207.1 -101.8 L 207.1 -101.8 Q 199.8 -101.8 195.8 -97.4 L 195.8 -97.4 L 195.8 -97.4 Q 191.7 -93 191.7 -85.1 L 191.7 -85.1 L 191.7 -85.1 Q 191.7 -79.5 193.5 -75.3 L 193.5 -75.3 L 193.5 -75.3 Q 195.3 -71.1 198.6 -68.8 L 198.6 -68.8 L 198.6 -68.8 Q 201.9 -66.5 206.3 -66.5 L 206.3 -66.5 L 206.3 -66.5 Q 208.6 -66.5 210.5 -67 L 210.5 -67 L 210.5 -67 Q 212.4 -67.6 213.7 -68.2 L 213.7 -68.2 L 213.7 -68.2 Q 215.1 -68.8 215.1 -68.9 L 215.1 -68.9 L 215.1 -76.7 L 215.1 -76.7 Q 215.1 -78.9 214.4 -79.5 L 214.4 -79.5 L 214.4 -79.5 Q 213.7 -80.2 211.5 -80.2 L 211.5 -80.2 L 207.1 -80.2 L 207 -80.4 L 207.6 -83.6 L 207.6 -83.6 Q 208.3 -83.6 210.8 -83.5 L 210.8 -83.5 L 210.8 -83.5 Q 213.3 -83.4 215.7 -83.4 L 215.7 -83.4 L 215.7 -83.4 Q 217.4 -83.4 219.1 -83.5 L 219.1 -83.5 L 219.1 -83.5 Q 220.8 -83.6 221.2 -83.7 L 221.2 -83.7 L 221.5 -82.3 L 221.5 -82.3 Q 220.3 -81.3 219.9 -79.2 L 219.9 -79.2 L 219.9 -79.2 Q 219.5 -77.2 219.5 -72.4 L 219.5 -72.4 L 219.5 -72.4 Q 219.5 -68.7 219.9 -66.8 L 219.9 -66.8 L 219.5 -66.2 L 219.5 -66.2 Q 219.5 -66.2 217.3 -65.4 L 217.3 -65.4 L 217.3 -65.4 Q 215 -64.6 211.7 -63.9 L 211.7 -63.9 L 211.7 -63.9 Q 208.4 -63.3 204.8 -63.3 L 204.8 -63.3 Z M 250.1 -63.3 L 250.1 -63.3 Q 244.9 -63.3 244.4 -68.5 L 244.4 -68.5 L 244.1 -68.5 L 244.1 -68.5 Q 241.8 -66.2 239.9 -64.9 L 239.9 -64.9 L 239.9 -64.9 Q 238 -63.5 237.1 -63.5 L 237.1 -63.5 L 237.1 -63.5 Q 233.5 -63.5 231.2 -65.8 L 231.2 -65.8 L 231.2 -65.8 Q 228.9 -68 228.9 -71.5 L 228.9 -71.5 L 228.9 -71.5 Q 228.9 -73.3 229.8 -74.7 L 229.8 -74.7 L 229.8 -74.7 Q 230.7 -76.1 232.3 -76.6 L 232.3 -76.6 L 244.4 -79.9 L 244.5 -82.7 L 244.5 -82.7 Q 244.5 -85.9 243 -87.7 L 243 -87.7 L 243 -87.7 Q 241.6 -89.5 238.9 -89.5 L 238.9 -89.5 L 238.9 -89.5 Q 237.1 -89.5 235.1 -88.7 L 235.1 -88.7 L 235.1 -88.7 Q 233.1 -87.9 231.2 -86.3 L 231.2 -86.3 L 230.9 -86.5 L 230.1 -89.3 L 230.1 -89.3 Q 233.1 -91 236.1 -92.4 L 236.1 -92.4 L 236.1 -92.4 Q 239.2 -93.7 240.5 -93.7 L 240.5 -93.7 L 240.5 -93.7 Q 244.7 -93.7 247.1 -91.6 L 247.1 -91.6 L 247.1 -91.6 Q 249.4 -89.4 249.4 -85.5 L 249.4 -85.5 L 249.4 -85.5 Q 249.4 -84.1 249 -79.7 L 249 -79.7 L 249 -79.7 Q 248.3 -72.7 248.3 -70.8 L 248.3 -70.8 L 248.3 -70.8 Q 248.3 -69.4 249 -68.6 L 249 -68.6 L 249 -68.6 Q 249.7 -67.8 250.9 -67.8 L 250.9 -67.8 L 250.9 -67.8 Q 251.9 -67.8 253 -68.3 L 253 -68.3 L 253 -68.3 Q 254.1 -68.8 254.7 -69.4 L 254.7 -69.4 L 255.6 -68.4 L 255.6 -68.4 Q 254.7 -66.8 253.2 -65.3 L 253.2 -65.3 L 253.2 -65.3 Q 251.7 -63.8 250.1 -63.3 L 250.1 -63.3 Z M 238.2 -67.9 L 238.2 -67.9 Q 239.4 -67.9 241 -68.7 L 241 -68.7 L 241 -68.7 Q 242.6 -69.6 244 -71 L 244 -71 L 244.3 -77.5 L 235.6 -74.9 L 235.6 -74.9 Q 233.7 -74.3 233.7 -72.2 L 233.7 -72.2 L 233.7 -72.2 Q 233.7 -70.3 235 -69.1 L 235 -69.1 L 235 -69.1 Q 236.2 -67.9 238.2 -67.9 L 238.2 -67.9 Z M 257.8 -63.3 L 258.1 -65.9 L 258.1 -65.9 Q 259.9 -66.4 260.6 -67.2 L 260.6 -67.2 L 260.6 -67.2 Q 261.3 -67.9 261.5 -69 L 261.5 -69 L 261.5 -69 Q 261.6 -70.1 261.6 -72.7 L 261.6 -72.7 L 261.6 -104.1 L 261.6 -104.1 Q 261.6 -106.1 261.2 -106.8 L 261.2 -106.8 L 261.2 -106.8 Q 260.8 -107.5 259.3 -107.5 L 259.3 -107.5 L 259.3 -107.5 Q 259 -107.5 257.9 -107.4 L 257.9 -107.4 L 257.7 -107.5 L 257.9 -109.7 L 257.9 -109.7 Q 263.3 -110.4 267.4 -111.5 L 267.4 -111.5 L 267.8 -110.7 L 267.8 -110.7 Q 267.1 -109.6 266.5 -97 L 266.5 -97 L 266.5 -97 Q 266 -84.4 266 -70.3 L 266 -70.3 L 266 -70.3 Q 266 -68.4 266.5 -67.6 L 266.5 -67.6 L 266.5 -67.6 Q 267 -66.7 268.2 -66.7 L 268.2 -66.7 L 270.5 -66.9 L 270.6 -66.6 L 270.1 -63.9 L 270.1 -63.9 Q 265.9 -64 264.4 -64 L 264.4 -64 L 264.4 -64 Q 262.2 -64 257.8 -63.3 L 257.8 -63.3 Z M 273.4 -63.3 L 273.7 -65.9 L 273.7 -65.9 Q 275.5 -66.4 276.2 -67.2 L 276.2 -67.2 L 276.2 -67.2 Q 276.9 -67.9 277.1 -69 L 277.1 -69 L 277.1 -69 Q 277.3 -70.1 277.3 -72.7 L 277.3 -72.7 L 277.3 -104.1 L 277.3 -104.1 Q 277.3 -106.1 276.8 -106.8 L 276.8 -106.8 L 276.8 -106.8 Q 276.4 -107.5 275 -107.5 L 275 -107.5 L 275 -107.5 Q 274.6 -107.5 273.5 -107.4 L 273.5 -107.4 L 273.3 -107.5 L 273.6 -109.7 L 273.6 -109.7 Q 278.9 -110.4 283 -111.5 L 283 -111.5 L 283.4 -110.7 L 283.4 -110.7 Q 282.7 -109.6 282.2 -97 L 282.2 -97 L 282.2 -97 Q 281.6 -84.4 281.6 -70.3 L 281.6 -70.3 L 281.6 -70.3 Q 281.6 -68.4 282.1 -67.6 L 282.1 -67.6 L 282.1 -67.6 Q 282.6 -66.7 283.9 -66.7 L 283.9 -66.7 L 286.1 -66.9 L 286.2 -66.6 L 285.7 -63.9 L 285.7 -63.9 Q 281.5 -64 280 -64 L 280 -64 L 280 -64 Q 277.8 -64 273.4 -63.3 L 273.4 -63.3 Z M 303.1 -63.3 L 303.1 -63.3 Q 299.1 -63.3 296 -65 L 296 -65 L 296 -65 Q 292.9 -66.8 291.3 -70 L 291.3 -70 L 291.3 -70 Q 289.6 -73.3 289.6 -77.4 L 289.6 -77.4 L 289.6 -77.4 Q 289.6 -81.7 291.6 -85.5 L 291.6 -85.5 L 291.6 -85.5 Q 293.5 -89.3 296.8 -91.5 L 296.8 -91.5 L 296.8 -91.5 Q 300 -93.7 303.8 -93.7 L 303.8 -93.7 L 303.8 -93.7 Q 308.4 -93.7 310.9 -91.4 L 310.9 -91.4 L 310.9 -91.4 Q 313.3 -89 313.3 -84.5 L 313.3 -84.5 L 313.3 -84.5 Q 313.3 -82.6 312.9 -81.3 L 312.9 -81.3 L 312.1 -80.6 L 294.4 -80.6 L 294.4 -80.6 Q 294.4 -74.3 296.9 -71 L 296.9 -71 L 296.9 -71 Q 299.4 -67.6 304 -67.6 L 304 -67.6 L 304 -67.6 Q 307.5 -67.6 311.8 -69.6 L 311.8 -69.6 L 312.1 -69.5 L 312.8 -67.6 L 312.8 -67.6 Q 310.5 -66 307.8 -64.6 L 307.8 -64.6 L 307.8 -64.6 Q 305 -63.3 303.1 -63.3 L 303.1 -63.3 Z M 294.7 -82.9 L 306.3 -83.5 L 306.3 -83.5 Q 307.2 -83.6 307.5 -83.9 L 307.5 -83.9 L 307.5 -83.9 Q 307.9 -84.3 307.9 -85.2 L 307.9 -85.2 L 307.9 -85.2 Q 307.9 -87.8 306.5 -89.1 L 306.5 -89.1 L 306.5 -89.1 Q 305.1 -90.5 302.5 -90.5 L 302.5 -90.5 L 302.5 -90.5 Q 299.5 -90.5 297.4 -88.4 L 297.4 -88.4 L 297.4 -88.4 Q 295.2 -86.4 294.7 -82.9 L 294.7 -82.9 Z M 319.8 -66.3 L 319.8 -66.3 Q 321.7 -66.5 322.3 -67.6 L 322.3 -67.6 L 322.3 -67.6 Q 323 -68.7 323 -71.7 L 323 -71.7 L 323 -85.7 L 323 -85.7 Q 323 -87.9 322.4 -88.7 L 322.4 -88.7 L 322.4 -88.7 Q 321.8 -89.6 320.5 -89.6 L 320.5 -89.6 L 320.5 -89.6 Q 320 -89.6 319.7 -89.6 L 319.7 -89.6 L 319.7 -89.6 Q 319.3 -89.5 319.2 -89.5 L 319.2 -89.5 L 318.9 -89.9 L 319.1 -91.9 L 319.1 -91.9 Q 321.5 -92.3 324.2 -93 L 324.2 -93 L 324.2 -93 Q 326.9 -93.6 327.7 -93.8 L 327.7 -93.8 L 328.1 -93.4 L 328.1 -93.4 Q 328 -92.8 327.8 -90.8 L 327.8 -90.8 L 327.8 -90.8 Q 327.5 -88.7 327.6 -86.8 L 327.6 -86.8 L 327.8 -86.6 L 327.8 -86.6 Q 329.7 -89.6 332.3 -91.6 L 332.3 -91.6 L 332.3 -91.6 Q 334.9 -93.5 336.8 -93.5 L 336.8 -93.5 L 336.8 -93.5 Q 337.7 -93.5 338.2 -93.4 L 338.2 -93.4 L 338.2 -93.4 Q 338.7 -93.3 338.8 -93.2 L 338.8 -93.2 L 339 -93 L 339 -93 Q 338.9 -92.1 338.5 -89.2 L 338.5 -89.2 L 338.5 -89.2 Q 338.1 -86.3 338 -83.8 L 338 -83.8 L 335.5 -83.6 L 335.5 -83.6 Q 335.5 -86.3 335.2 -87.1 L 335.2 -87.1 L 335.2 -87.1 Q 334.8 -88 333.8 -88 L 333.8 -88 L 333.8 -88 Q 332.4 -88 330.8 -86.8 L 330.8 -86.8 L 330.8 -86.8 Q 329.2 -85.6 327.8 -83.6 L 327.8 -83.6 L 327.8 -83.6 Q 327.8 -81.8 327.6 -77.5 L 327.6 -77.5 L 327.6 -77.5 Q 327.4 -73.2 327.3 -70.6 L 327.3 -70.6 L 327.3 -70.6 Q 327.3 -68.4 328 -67.6 L 328 -67.6 L 328 -67.6 Q 328.6 -66.9 330.4 -66.9 L 330.4 -66.9 L 330.4 -66.9 Q 331.2 -66.9 332 -66.9 L 332 -66.9 L 332 -66.9 Q 332.9 -67 333.2 -67 L 333.2 -67 L 333.3 -66.7 L 332.7 -63.9 L 332.7 -63.9 Q 332 -63.9 330.1 -64 L 330.1 -64 L 330.1 -64 Q 328.2 -64 326.2 -64 L 326.2 -64 L 326.2 -64 Q 323.8 -64 321.9 -63.9 L 321.9 -63.9 L 321.9 -63.9 Q 320 -63.9 319.4 -63.8 L 319.4 -63.8 L 319.8 -66.3 Z M 342.8 -48.6 L 342.8 -48.6 Q 342.3 -48.6 341.1 -50.1 L 341.1 -50.1 L 341.1 -50.1 Q 340 -51.6 340 -52.3 L 340 -52.3 L 340.3 -52.7 L 340.3 -52.7 Q 343.9 -52.7 347 -55.7 L 347 -55.7 L 347 -55.7 Q 350.1 -58.7 352.3 -64 L 352.3 -64 L 352.3 -64 Q 347.4 -79.7 344.4 -87.6 L 344.4 -87.6 L 344.4 -87.6 Q 343.8 -89.2 342.8 -89.9 L 342.8 -89.9 L 342.8 -89.9 Q 341.7 -90.6 340 -90.7 L 340 -90.7 L 339.9 -90.9 L 340.3 -93 L 345.6 -93 L 345.6 -93 Q 348 -93 350.3 -93.2 L 350.3 -93.2 L 350.3 -93.2 Q 352.7 -93.4 353.3 -93.4 L 353.3 -93.4 L 353.4 -93.1 L 353 -91.1 L 353 -91.1 Q 350.9 -91.1 350.1 -90.7 L 350.1 -90.7 L 350.1 -90.7 Q 349.4 -90.3 349.4 -89.5 L 349.4 -89.5 L 349.4 -89.5 Q 349.4 -88.4 350.6 -84.1 L 350.6 -84.1 L 350.6 -84.1 Q 351.9 -79.9 353.2 -75.6 L 353.2 -75.6 L 353.2 -75.6 Q 354.6 -71.3 355 -70.1 L 355 -70.1 L 355.3 -70.1 L 355.3 -70.1 Q 362.6 -87.7 362.6 -89.2 L 362.6 -89.2 L 362.6 -89.2 Q 362.6 -90.9 360.2 -90.9 L 360.2 -90.9 L 357.3 -90.9 L 357.1 -91.1 L 357.5 -93.2 L 357.5 -93.2 Q 358.1 -93.2 360.1 -93.1 L 360.1 -93.1 L 360.1 -93.1 Q 362.1 -93 364 -93 L 364 -93 L 369.5 -93 L 369 -90.7 L 369 -90.7 Q 367.6 -90.4 366.9 -89.7 L 366.9 -89.7 L 366.9 -89.7 Q 366.2 -88.9 365.5 -87 L 365.5 -87 L 357.3 -67.6 L 357.3 -67.6 Q 354 -59.5 351.9 -55.6 L 351.9 -55.6 L 351.9 -55.6 Q 349.8 -51.7 347.7 -50.1 L 347.7 -50.1 L 347.7 -50.1 Q 345.7 -48.6 342.8 -48.6 L 342.8 -48.6 Z" fill="rgba(18%, 76%, 100%, 0.81)"></path></g></g><style>text {
  font-size: 64px;
  font-family: Arial Black;
  dominant-baseline: central;
  text-anchor: middle;
}</style></svg>